<svg id="HOME_FILLED" data-name="HOME FILLED" xmlns="http://www.w3.org/2000/svg" viewBox="0 0 200 200"><path d="M145.59,195.94a9.15,9.15,0,0,1-9.15-9.14V121l-35.17,28.9a2,2,0,0,1-2.54,0L63.56,121V186.8a9.15,9.15,0,0,1-9.15,9.14H30a3.44,3.44,0,0,1-3.43-3.43V74.87a2,2,0,0,1,2-2h33a2,2,0,0,1,1.27.46L100,103.87l37.17-30.54a2,2,0,0,1,1.27-.46h33a2,2,0,0,1,2,2V192.51a3.44,3.44,0,0,1-3.43,3.43Z"/><path d="M171.43,74.87V192.51a1.43,1.43,0,0,1-1.43,1.43H145.59a7.15,7.15,0,0,1-7.15-7.14v-70L100,148.38,61.56,116.8v70a7.15,7.15,0,0,1-7.15,7.14H30a1.43,1.43,0,0,1-1.43-1.43V74.87h33L100,106.46l38.44-31.59h33m0-4h-33a4,4,0,0,0-2.54.91L100,101.28,64.1,71.78a4,4,0,0,0-2.54-.91h-33a4,4,0,0,0-4,4V192.51A5.44,5.44,0,0,0,30,197.94H54.41A11.16,11.16,0,0,0,65.56,186.8V125.26l31.9,26.22a4,4,0,0,0,5.08,0l31.9-26.22V186.8a11.16,11.16,0,0,0,11.15,11.14H170a5.44,5.44,0,0,0,5.43-5.43V74.87a4,4,0,0,0-4-4Z"/><path d="M28.57,62.59a2,2,0,0,1-1.06-3.7L98.94,14.18a2,2,0,0,1,2.12,0l35.38,22.15V13.2a9.15,9.15,0,0,1,9.15-9.14h14.2a3.43,3.43,0,0,1,3.42,3.43V53.08l9.28,5.81a2,2,0,0,1-1.06,3.7Z"/><path d="M159.79,6.06a1.43,1.43,0,0,1,1.42,1.43v46.7l10.22,6.4H28.57L100,15.87l38.44,24.07V13.2a7.15,7.15,0,0,1,7.15-7.14h14.2m0-4h-14.2A11.16,11.16,0,0,0,134.44,13.2V32.72L102.12,12.48a4,4,0,0,0-4.24,0L26.45,57.2a4,4,0,0,0,2.12,7.39H171.43a4,4,0,0,0,2.12-7.39L165.21,52V7.49a5.43,5.43,0,0,0-5.42-5.43Z"/></svg>