<svg id="HOME_OUTLINED" data-name="HOME OUTLINED" xmlns="http://www.w3.org/2000/svg" viewBox="0 0 200 200"><path d="M171.43,74.87V192.51a1.43,1.43,0,0,1-1.43,1.43H145.59a7.15,7.15,0,0,1-7.15-7.14v-70L100,148.38,61.56,116.8v70a7.15,7.15,0,0,1-7.15,7.14H30a1.43,1.43,0,0,1-1.43-1.43V74.87h33L100,106.46l38.44-31.59h33m0-4h-33a4,4,0,0,0-2.54.91L100,101.28,64.1,71.78a4,4,0,0,0-2.54-.91h-33a4,4,0,0,0-4,4V192.51A5.44,5.44,0,0,0,30,197.94H54.41A11.16,11.16,0,0,0,65.56,186.8V125.26l31.9,26.22a4,4,0,0,0,5.08,0l31.9-26.22V186.8a11.16,11.16,0,0,0,11.15,11.14H170a5.44,5.44,0,0,0,5.43-5.43V74.87a4,4,0,0,0-4-4Z"/><path d="M159.79,6.06a1.43,1.43,0,0,1,1.42,1.43v46.7l10.22,6.4H28.57L100,15.87l38.44,24.07V13.2a7.15,7.15,0,0,1,7.15-7.14h14.2m0-4h-14.2A11.16,11.16,0,0,0,134.44,13.2V32.72L102.12,12.48a4,4,0,0,0-4.24,0L26.45,57.2a4,4,0,0,0,2.12,7.39H171.43a4,4,0,0,0,2.12-7.39L165.21,52V7.49a5.43,5.43,0,0,0-5.42-5.43Z"/></svg>