<svg id="NOTICIAS_FILLED" data-name="NOTICIAS FILLED" xmlns="http://www.w3.org/2000/svg" viewBox="0 0 200 200"><defs><style>.cls-1{fill:#6b6b6b;}</style></defs><path d="M5,165V23.21c1.68-5.27,5.4-7.08,10.76-7.08q73.56.14,147.12.06c.81,0,1.61,0,2.41,0a8.58,8.58,0,0,1,8.19,8.66c.05,2.41,0,4.82,0,7.24v5.56c4.24,0,8.2,0,12.15,0,5.8,0,9.35,3.58,9.35,9.4q0,57.42-.05,114.84a23.86,23.86,0,0,1-1.2,7.45c-3,9-11.18,14.48-21.29,14.48H27.55c-.74,0-1.48,0-2.22,0a21.61,21.61,0,0,1-19.41-15.3C5.57,167.35,5.3,166.15,5,165ZM173.49,46.36V154.73c0,2.57.26,2.85,3,3.52a4.1,4.1,0,0,1,3.33,4.45,4,4,0,0,1-3.83,3.82,9.79,9.79,0,0,1-3.1-.29c-5.16-1.39-8-5.49-8-11.47V24.87H13.66c0,.71-.09,1.31-.09,1.91q0,67.25,0,134.5c0,8.49,5.44,14,13.89,14q72.54,0,145.08,0c8.45,0,13.88-5.51,13.88-14q0-56.49,0-113c0-.65-.06-1.3-.09-1.93Z"/><path class="cls-1" d="M173.49,46.36h12.84c0,.63.09,1.28.09,1.93q0,56.49,0,113c0,8.49-5.43,14-13.88,14q-72.54,0-145.08,0c-8.45,0-13.88-5.5-13.89-14q0-67.24,0-134.5c0-.6.06-1.2.09-1.91H164.92V154.76c0,6,2.84,10.08,8,11.47a9.79,9.79,0,0,0,3.1.29,4,4,0,0,0,3.83-3.82,4.1,4.1,0,0,0-3.33-4.45c-2.77-.67-3-.95-3-3.52V46.36ZM56.75,63.49H36.53c-4.26,0-5.73,1.44-5.74,5.64q0,20.4,0,40.81c0,4,1.6,5.57,5.65,5.57q20.33,0,40.63,0c4.16,0,5.76-1.56,5.76-5.66q0-20.33,0-40.63c0-4.19-1.52-5.72-5.67-5.73C70.36,63.48,63.56,63.49,56.75,63.49ZM89.25,42H37a18.57,18.57,0,0,0-2.59.12,4.05,4.05,0,0,0-3.47,3.78c-.23,3,1.78,4.69,5.5,4.69H142.1a10.43,10.43,0,0,0,2.56-.31,4.19,4.19,0,0,0-.34-8.11,15.92,15.92,0,0,0-2.77-.16Zm32.27,51.59h20.22a13.08,13.08,0,0,0,2.57-.24,4.19,4.19,0,0,0,2.35-6.81c-1.25-1.5-3-1.58-4.74-1.58H101.49a12.9,12.9,0,0,0-2.4.21,4,4,0,0,0-3.26,3.54c-.36,2.91,1.61,4.84,5.1,4.86C107.79,93.63,114.65,93.61,121.52,93.61Zm.1,21.47h20.22c3.78,0,5.75-1.46,5.81-4.23s-2-4.4-5.83-4.41H101.57a10.94,10.94,0,0,0-2.75.29A3.84,3.84,0,0,0,95.88,110c-.53,3,1.4,5.09,5,5.11C107.77,115.11,114.7,115.08,121.62,115.08Zm.09-51.59h-20a14,14,0,0,0-2.59.18,3.86,3.86,0,0,0-3.16,3c-.43,1.77-.07,3.47,1.54,4.39a8.21,8.21,0,0,0,3.83,1c13.6.07,27.2,0,40.8,0a10,10,0,0,0,2.38-.28,4.05,4.05,0,0,0,3.13-4.4c-.22-2.51-2-3.91-5.13-3.93C135.56,63.48,128.63,63.49,121.71,63.49Zm0,73.07h20a13.88,13.88,0,0,0,2.58-.18,3.83,3.83,0,0,0,3.16-3c.45-1.77.09-3.48-1.53-4.38a8.58,8.58,0,0,0-4-1c-13.48-.07-27,0-40.44,0a11,11,0,0,0-2.56.28,4,4,0,0,0-3.13,4.4c.22,2.5,2,3.91,5.13,3.93C107.85,136.57,114.77,136.55,121.7,136.56ZM56.77,158H77a13.7,13.7,0,0,0,2.4-.15,4.19,4.19,0,0,0,.41-8.11,11,11,0,0,0-2.74-.32q-20.22,0-40.43,0a10.55,10.55,0,0,0-2.75.31A4.18,4.18,0,0,0,31.5,156c1.06,1.67,2.67,2,4.5,2Zm64.83,0h18.92a25.39,25.39,0,0,0,3.7-.15,4,4,0,0,0,3.4-3.83,4.12,4.12,0,0,0-2.67-4.22,8.46,8.46,0,0,0-2.55-.37q-20.68,0-41.36,0a9,9,0,0,0-2.19.29A4.07,4.07,0,0,0,95.78,154c.17,2.53,2,4,5,4C107.75,158,114.67,158,121.6,158ZM56.8,136.56c5.32,0,10.63,0,16,0,2.16,0,4.34,0,6.48-.18a4,4,0,0,0,3.44-4.66c-.36-2.53-2.13-3.78-5.47-3.78q-20.4,0-40.8,0a10.22,10.22,0,0,0-2.2.24,4,4,0,0,0-3.27,4.63c.27,2.39,2,3.72,5.1,3.74C43,136.57,49.87,136.55,56.8,136.56Z"/><path d="M56.75,63.49c6.81,0,13.61,0,20.41,0,4.15,0,5.67,1.54,5.67,5.73q0,20.31,0,40.63c0,4.1-1.6,5.66-5.76,5.66q-20.31,0-40.63,0c-4,0-5.64-1.56-5.65-5.57q0-20.4,0-40.81c0-4.2,1.48-5.64,5.74-5.64ZM39.5,106.8H74.08V72.25H39.5Z"/><path d="M89.25,42h52.3a15.92,15.92,0,0,1,2.77.16,4.19,4.19,0,0,1,.34,8.11,10.43,10.43,0,0,1-2.56.31H36.4c-3.72,0-5.73-1.74-5.5-4.69a4.05,4.05,0,0,1,3.47-3.78A18.57,18.57,0,0,1,37,42Z"/><path d="M121.52,93.61c-6.87,0-13.73,0-20.59,0-3.49,0-5.46-2-5.1-4.86a4,4,0,0,1,3.26-3.54,12.9,12.9,0,0,1,2.4-.21h40.43c1.76,0,3.49.08,4.74,1.58a4.19,4.19,0,0,1-2.35,6.81,13.08,13.08,0,0,1-2.57.24Z"/><path d="M121.62,115.08c-6.92,0-13.85,0-20.77,0-3.57,0-5.5-2.07-5-5.11a3.84,3.84,0,0,1,2.94-3.21,10.94,10.94,0,0,1,2.75-.29h40.25c3.83,0,5.88,1.57,5.83,4.41s-2,4.22-5.81,4.23Z"/><path d="M121.71,63.49c6.92,0,13.85,0,20.77,0,3.13,0,4.91,1.42,5.13,3.93a4.05,4.05,0,0,1-3.13,4.4,10,10,0,0,1-2.38.28c-13.6,0-27.2,0-40.8,0a8.21,8.21,0,0,1-3.83-1c-1.61-.92-2-2.62-1.54-4.39a3.86,3.86,0,0,1,3.16-3,14,14,0,0,1,2.59-.18Z"/><path d="M121.7,136.55c-6.93,0-13.85,0-20.77,0-3.13,0-4.91-1.43-5.13-3.93a4,4,0,0,1,3.13-4.4,11,11,0,0,1,2.56-.28c13.48,0,27,0,40.44,0a8.58,8.58,0,0,1,4,1c1.62.9,2,2.61,1.53,4.38a3.83,3.83,0,0,1-3.16,3,13.88,13.88,0,0,1-2.58.18Z"/><path d="M56.77,158H36c-1.83,0-3.44-.36-4.5-2a4.18,4.18,0,0,1,2.37-6.25,10.55,10.55,0,0,1,2.75-.31q20.21,0,40.43,0a11,11,0,0,1,2.74.32,4.19,4.19,0,0,1-.41,8.11A13.7,13.7,0,0,1,77,158Z"/><path d="M121.6,158c-6.93,0-13.85,0-20.77,0-3.09,0-4.88-1.48-5-4a4.07,4.07,0,0,1,3.07-4.28,9,9,0,0,1,2.19-.29q20.67,0,41.36,0a8.46,8.46,0,0,1,2.55.37,4.12,4.12,0,0,1,2.67,4.22,4,4,0,0,1-3.4,3.83,25.39,25.39,0,0,1-3.7.15Z"/><path d="M56.8,136.55c-6.93,0-13.85,0-20.77,0-3.06,0-4.83-1.35-5.1-3.74a4,4,0,0,1,3.27-4.63,10.22,10.22,0,0,1,2.2-.24q20.4,0,40.8,0c3.34,0,5.11,1.25,5.47,3.78a4,4,0,0,1-3.44,4.66c-2.14.22-4.32.17-6.48.18C67.43,136.57,62.12,136.56,56.8,136.55Z"/><path d="M36.09,110.2V68.85H77.48V110.2Z"/></svg>