<svg id="PUBLICACIONES_OUTLINES" data-name="PUBLICACIONES OUTLINES" xmlns="http://www.w3.org/2000/svg" viewBox="0 0 200 200"><defs><style>.cls-1{fill:#fff;}</style></defs><path d="M58.23,125.93c-1.81,7.23-3.57,14.28-5.34,21.33-.88,3.52-1.75,7.06-2.65,10.58-.72,2.8-2.22,4-5.13,4q-6.88,0-13.76,0c-3.47,0-5.22-1.76-5.23-5.22q0-14.31,0-28.64v-2.32H19.71C10.65,125.63,5,120,5,111Q5,99.84,5,88.72c0-8.56,5.75-14.33,14.28-14.34,9.36,0,18.72-.25,28.07.06A76.38,76.38,0,0,0,74,70.28c18.45-6.06,35.67-14.46,50.81-26.81,1.55-1.27,3-2.63,4.53-4,2.21-2,3.92-3.93,4.13-7.45.39-6.44,6.39-10.89,12.76-10.4A12,12,0,0,1,157.3,33.78q0,37.5,0,75,0,28.64,0,57.28a12,12,0,1,1-24.06.61,5.28,5.28,0,0,0-1.73-4.08C121,152.19,108.6,144.46,95.3,138.17c-11.25-5.33-22.86-9.69-35.17-12C59.58,126.11,59,126.05,58.23,125.93Zm74.89-77.46A167.23,167.23,0,0,1,59.37,83.28v33.61c13.66,2.29,26.49,6.9,38.92,12.68a147.47,147.47,0,0,1,34.83,22.13ZM142.23,100q0,32.42,0,64.82a10.81,10.81,0,0,0,0,1.89,3,3,0,0,0,5.94,0,9.52,9.52,0,0,0,0-1.69q0-65,0-130a9.52,9.52,0,0,0,0-1.69,3,3,0,0,0-5.94,0,10.7,10.7,0,0,0,0,1.88Q142.22,67.6,142.23,100ZM50.12,116.5V83.57H35.26V116.5ZM26,116.58V83.44c-2.62,0-5.13-.08-7.62,0a4.33,4.33,0,0,0-4.28,4.39q-.09,12.14,0,24.28a4.37,4.37,0,0,0,4.45,4.43C21,116.64,23.41,116.58,26,116.58Zm23,9.15H35.28v27h6.93C44.45,143.72,46.68,134.79,49,125.73Z"/><path d="M168.29,71.81a4.51,4.51,0,0,1-4.65-3.29,4.12,4.12,0,0,1,1.84-4.9c4.86-2.46,9.77-4.83,14.74-7A4.2,4.2,0,0,1,185.66,59a4.4,4.4,0,0,1-2.19,5.88c-4.53,2.27-9.13,4.42-13.72,6.58A5.9,5.9,0,0,1,168.29,71.81Z"/><path d="M186.47,138.94c-.48,3.39-3.48,5.69-6.29,4.47-4.93-2.14-9.77-4.51-14.56-6.95a4.25,4.25,0,0,1-1.68-5.72,4.29,4.29,0,0,1,5.53-2.26c4.9,2.21,9.77,4.52,14.51,7.05C185.1,136.13,185.66,137.78,186.47,138.94Z"/><path d="M183.14,95.49c2.38,0,4.77,0,7.15,0a4.51,4.51,0,1,1,.08,9q-7.43.08-14.85,0a4.51,4.51,0,1,1,.1-9C178.13,95.45,180.64,95.49,183.14,95.49Z"/><path class="cls-1" d="M133.12,48.47V151.7a147.47,147.47,0,0,0-34.83-22.13C85.86,123.79,73,119.18,59.37,116.89V83.28A167.23,167.23,0,0,0,133.12,48.47Z"/><path class="cls-1" d="M142.23,100q0-32.42,0-64.83a10.7,10.7,0,0,1,0-1.88,3,3,0,0,1,5.94,0,9.52,9.52,0,0,1,0,1.69q0,65,0,130a9.52,9.52,0,0,1,0,1.69,3,3,0,0,1-5.94,0,10.81,10.81,0,0,1,0-1.89Q142.22,132.43,142.23,100Z"/><path class="cls-1" d="M50.12,116.5H35.26V83.57H50.12Z"/><path class="cls-1" d="M26,116.58c-2.58,0-5,.06-7.46,0a4.37,4.37,0,0,1-4.45-4.43Q14,100,14.09,87.85a4.33,4.33,0,0,1,4.28-4.39c2.49-.1,5,0,7.62,0Z"/><path class="cls-1" d="M49,125.73c-2.27,9.06-4.5,18-6.74,27H35.28v-27Z"/></svg>