<svg id="PUBLICACIONES_FILLED" data-name="PUBLICACIONES FILLED" xmlns="http://www.w3.org/2000/svg" viewBox="0 0 200 200"><path d="M128.54,159.57c-20.27-17.19-43.46-28-69.16-33.73V74.15c25.71-5.76,48.89-16.54,69.16-33.72Z"/><path d="M133.2,99.9q0-33,0-65.95a12.06,12.06,0,0,1,24.09-1c0,.5,0,1,0,1.5V165.58c0,6.19-3.5,11-9,12.43a12,12,0,0,1-15.14-11.6c-.08-9.67,0-19.34,0-29Q133.19,118.64,133.2,99.9Z"/><path d="M29.29,74.45h25.4v51H29.29Z"/><path d="M24.5,125.77a71.84,71.84,0,0,1-8.54-.49,13.22,13.22,0,0,1-10.9-13Q5,100,5.06,87.76A13.52,13.52,0,0,1,18.37,74.38c2,0,4,0,6.13,0Z"/><path d="M29.17,130.25H55.28c-1.19,4.74-2.34,9.35-3.49,14s-2.24,9-3.38,13.49c-.75,3-2.21,4.11-5.2,4.13s-6.27,0-9.41,0a4.39,4.39,0,0,1-4.61-4.46C29.13,148.38,29.17,139.41,29.17,130.25Z"/><path d="M168.37,71.8a4.53,4.53,0,0,1-4.71-3.21,4.19,4.19,0,0,1,1.91-5c4.81-2.43,9.66-4.77,14.58-7a4.23,4.23,0,0,1,5.55,2.49,4.42,4.42,0,0,1-2.32,5.84c-4.49,2.23-9,4.36-13.55,6.5A6.84,6.84,0,0,1,168.37,71.8Z"/><path d="M168.41,128.21a13.45,13.45,0,0,1,2,.65q6.28,3,12.52,6c2.82,1.39,3.83,3.87,2.65,6.3s-3.78,3.17-6.56,1.85c-4.29-2-8.59-4.08-12.85-6.19a4.39,4.39,0,0,1-2.57-5.09C164.11,129.63,165.8,128.25,168.41,128.21Z"/><path d="M183.13,95.48c2.32,0,4.64,0,7,0,2.92,0,4.93,1.94,4.91,4.56a4.52,4.52,0,0,1-4.8,4.47q-7.24.06-14.48,0a4.54,4.54,0,0,1-4.82-4.46c0-2.62,2-4.53,4.9-4.56C178.25,95.45,180.69,95.48,183.13,95.48Z"/></svg>